<svg xmlns="http://www.w3.org/2000/svg" viewBox="0 0 128 128" role="img" aria-label="Medical AI adversarial robustness favicon">
  <defs>
    <linearGradient id="bg" x1="16" y1="10" x2="116" y2="120" gradientUnits="userSpaceOnUse">
      <stop offset="0" stop-color="#07192d" />
      <stop offset="0.58" stop-color="#0b5f59" />
      <stop offset="1" stop-color="#0f766e" />
    </linearGradient>
    <linearGradient id="cross" x1="32" y1="28" x2="88" y2="88" gradientUnits="userSpaceOnUse">
      <stop offset="0" stop-color="#f7fbfd" />
      <stop offset="1" stop-color="#b9f0e9" />
    </linearGradient>
    <filter id="shadow" x="-20%" y="-20%" width="140%" height="140%">
      <feDropShadow dx="0" dy="6" stdDeviation="5" flood-color="#03101d" flood-opacity="0.34" />
    </filter>
  </defs>
  <rect width="128" height="128" rx="28" fill="url(#bg)" />
  <path d="M64 17 97 31v26c0 25-13 43-33 54-20-11-33-29-33-54V31l33-14Z" fill="#d9fbf7" opacity="0.18" />
  <path d="M64 24 91 36v21c0 21-10 35-27 45-17-10-27-24-27-45V36l27-12Z" fill="#0f2742" opacity="0.48" />
  <g filter="url(#shadow)">
    <path d="M54 31h20v22h22v20H74v22H54V73H32V53h22V31Z" fill="url(#cross)" />
  </g>
  <path d="M35 90c9-18 16-24 29-24s20-6 29-24" fill="none" stroke="#ffb454" stroke-width="6" stroke-linecap="round" stroke-linejoin="round" />
  <path d="M87 38h16v16" fill="none" stroke="#ffb454" stroke-width="6" stroke-linecap="round" stroke-linejoin="round" />
  <g fill="#ff6b4a">
    <rect x="20" y="24" width="8" height="8" rx="2" />
    <rect x="103" y="76" width="7" height="7" rx="2" />
    <rect x="24" y="101" width="6" height="6" rx="2" />
    <rect x="94" y="98" width="9" height="9" rx="2" />
  </g>
</svg>
